<svg width="123" height="25" viewBox="0 0 123 25" fill="none" xmlns="http://www.w3.org/2000/svg">
<path fill-rule="evenodd" clip-rule="evenodd" d="M12.8243 0C19.5917 0 25.0778 5.48607 25.0778 12.2535C25.0778 15.3892 23.8999 18.2498 21.9625 20.417L20.9179 19.3721C20.5292 18.9834 19.8991 18.9834 19.5104 19.3721C19.1217 19.7607 19.1217 20.3909 19.5104 20.7795L20.5202 21.7892C18.4167 23.489 15.7394 24.507 12.8243 24.507C6.05687 24.507 0.570801 19.0209 0.570801 12.2535C0.570801 9.3384 1.58873 6.66107 3.28852 4.55756L4.15406 5.42321C4.54272 5.81187 5.17287 5.81187 5.56153 5.42321C5.9502 5.03454 5.9502 4.4044 5.56153 4.01573L4.66075 3.11524C6.82797 1.17784 9.68858 0 12.8243 0ZM14.441 19.3892C14.055 19.0032 13.4291 19.0032 13.043 19.3892L10.5705 21.8618C10.1844 22.2479 10.1844 22.8738 10.5705 23.2598C10.9565 23.6458 11.5824 23.6458 11.9684 23.2598L14.441 20.7872C14.8271 20.4012 14.8271 19.7753 14.441 19.3892ZM18.215 15.8624C17.5394 15.1868 16.4404 15.1905 15.7602 15.8707C15.0801 16.5509 15.0763 17.6499 15.7519 18.3255C16.4275 19.001 17.5265 18.9973 18.2067 18.3172C18.8868 17.637 18.8906 16.538 18.215 15.8624ZM12.0212 10.4754C11.6326 10.0868 11.0024 10.0868 10.6138 10.4754C10.2251 10.8641 10.2251 11.4942 10.6138 11.8829L13.0507 14.3199C13.4394 14.7085 14.0695 14.7085 14.4582 14.3199C14.8468 13.9312 14.8468 13.301 14.4582 12.9124L12.0212 10.4754ZM9.31834 6.96575C8.64277 6.29018 7.54374 6.2939 6.86358 6.97406C6.18342 7.65422 6.1797 8.75326 6.85526 9.42883C7.53083 10.1044 8.62987 10.1007 9.31003 9.42051C9.99019 8.74035 9.99391 7.64132 9.31834 6.96575V6.96575ZM14.5015 1.53549C14.1154 1.14945 13.4895 1.14945 13.1035 1.53549L10.6309 4.00807C10.2449 4.39411 10.2449 5.02 10.6309 5.40604C11.017 5.79208 11.6429 5.79208 12.0289 5.40604L14.5015 2.93346C14.8875 2.54742 14.8875 1.92153 14.5015 1.53549Z" fill="white"/>
<path fill-rule="evenodd" clip-rule="evenodd" d="M14.4411 19.3893C14.8271 19.7753 14.8271 20.4012 14.4411 20.7872L11.9685 23.2598C11.5825 23.6458 10.9566 23.6458 10.5705 23.2598C10.1845 22.8738 10.1845 22.2479 10.5705 21.8618L13.0431 19.3893C13.4291 19.0032 14.055 19.0032 14.4411 19.3893ZM20.9179 19.3721L21.9628 20.4168C21.52 20.9122 21.0375 21.3713 20.5203 21.7893L19.5105 20.7796C19.1218 20.3909 19.1218 19.7607 19.5105 19.3721C19.8991 18.9834 20.5293 18.9834 20.9179 19.3721ZM18.2151 15.8624C18.8906 16.538 18.8869 17.637 18.2067 18.3172C17.5266 18.9973 16.4275 19.0011 15.752 18.3255C15.0764 17.6499 15.0801 16.5509 15.7603 15.8707C16.4405 15.1906 17.5395 15.1868 18.2151 15.8624ZM12.0213 10.4754L14.4582 12.9124C14.8469 13.3011 14.8469 13.9312 14.4582 14.3199C14.0696 14.7085 13.4394 14.7085 13.0508 14.3199L10.6138 11.8829C10.2252 11.4942 10.2252 10.8641 10.6138 10.4754C11.0025 10.0868 11.6326 10.0868 12.0213 10.4754ZM9.31841 6.96576C9.99398 7.64133 9.99026 8.74036 9.3101 9.42052C8.62994 10.1007 7.5309 10.1044 6.85534 9.42884C6.17977 8.75327 6.18349 7.65423 6.86365 6.97407C7.54381 6.29391 8.64284 6.29019 9.31841 6.96576ZM4.66102 3.11508L5.5616 4.01575C5.95027 4.40441 5.95027 5.03456 5.5616 5.42322C5.17294 5.81188 4.54279 5.81188 4.15413 5.42322L3.28857 4.55759C3.7065 4.0404 4.16565 3.5579 4.66102 3.11508ZM14.5015 1.5355C14.8876 1.92154 14.8876 2.54743 14.5015 2.93347L12.029 5.40605C11.6429 5.79209 11.017 5.79209 10.631 5.40605C10.245 5.02001 10.245 4.39412 10.631 4.00808L13.1036 1.5355C13.4896 1.14946 14.1155 1.14946 14.5015 1.5355Z" fill="#001529"/>
<path d="M33.7273 18.9713C34.5577 18.9713 35.2784 18.806 35.8897 18.4753C36.5009 18.1447 37.0103 17.5489 37.4178 16.6878L37.6945 18.7406H40.5085V10.3563C40.5085 9.5798 40.3432 8.90899 40.0126 8.34388C39.682 7.77878 39.1477 7.34438 38.4096 7.04069C37.6715 6.737 36.6912 6.58515 35.4687 6.58515C34.4769 6.58515 33.5908 6.72162 32.8105 6.99456C32.0301 7.2675 31.4131 7.68268 30.9595 8.24009C30.5058 8.7975 30.256 9.50676 30.2098 10.3679H33.0123C33.1737 9.8143 33.4755 9.42603 33.9176 9.20307C34.3597 8.9801 34.8268 8.86478 35.3188 8.85709C35.9877 8.8494 36.4817 8.99356 36.8008 9.28956C37.1198 9.58557 37.2794 10.0065 37.2794 10.5524V11.2674L35.7917 11.2905C33.685 11.3135 32.1435 11.6653 31.167 12.3457C30.1906 13.0262 29.7024 14.0199 29.7024 15.3269C29.7024 16.1035 29.8792 16.7627 30.2329 17.3048C30.5866 17.8468 31.0671 18.2601 31.6745 18.5445C32.2819 18.829 32.9661 18.9713 33.7273 18.9713ZM34.8575 16.757C34.3116 16.757 33.8465 16.6013 33.462 16.2899C33.0776 15.9785 32.8854 15.546 32.8854 14.9925C32.8854 14.5081 33.0334 14.1237 33.3294 13.8392C33.6254 13.5547 34.0156 13.3491 34.5 13.2222C34.9844 13.0954 35.5072 13.0281 36.0684 13.0204L37.2794 12.9973V14.7618C37.2794 15.0155 37.2102 15.2616 37.0718 15.4999C36.9334 15.7383 36.7508 15.9516 36.524 16.14C36.2972 16.3283 36.0396 16.4783 35.7513 16.5898C35.463 16.7012 35.165 16.757 34.8575 16.757ZM47.3013 18.9482C47.5319 18.9482 47.7664 18.9194 48.0048 18.8617C48.2431 18.804 48.4776 18.7368 48.7083 18.6599V16.584L48.1432 16.5494C47.6203 16.4879 47.2648 16.3207 47.0764 16.0477C46.888 15.7748 46.7938 15.4192 46.7938 14.9809V1.60303H43.4955V15.3961C43.4955 15.8267 43.5301 16.2515 43.5993 16.6705C43.6685 17.0895 43.8261 17.4701 44.0721 17.8122C44.3182 18.1544 44.6987 18.4292 45.2139 18.6368C45.729 18.8444 46.4248 18.9482 47.3013 18.9482ZM56.3775 18.9713C57.2079 18.9713 58.0075 18.8136 58.7763 18.4984C59.5451 18.1832 60.2006 17.7257 60.7426 17.126C61.2847 16.5263 61.621 15.8036 61.7517 14.9579H58.7186C58.5495 15.5191 58.2477 15.9228 57.8133 16.1688C57.3789 16.4148 56.8734 16.5379 56.2968 16.5379C55.7586 16.5379 55.2992 16.4168 54.9186 16.1746C54.538 15.9324 54.2478 15.5864 54.0479 15.1366C53.848 14.6869 53.7519 14.1583 53.7596 13.5509H61.7633V12.6398C61.7633 11.4481 61.5538 10.3967 61.1347 9.48562C60.7157 8.57454 60.0929 7.86336 59.2664 7.35207C58.4399 6.84079 57.4193 6.58515 56.2045 6.58515C54.9897 6.58515 53.9499 6.86386 53.0849 7.42127C52.22 7.97868 51.5607 8.736 51.1071 9.69321C50.6534 10.6504 50.4266 11.7249 50.4266 12.9166C50.4266 14.1467 50.6765 15.2154 51.1763 16.1227C51.676 17.0299 52.3737 17.7315 53.2694 18.2274C54.1651 18.7233 55.2012 18.9713 56.3775 18.9713ZM58.6148 11.5442H53.748C53.748 11.106 53.8442 10.6869 54.0364 10.2871C54.2286 9.88734 54.5073 9.5625 54.8725 9.31263C55.2377 9.06275 55.6817 8.93782 56.2045 8.93782C56.7427 8.93782 57.1906 9.05314 57.5481 9.2838C57.9056 9.51445 58.1728 9.82968 58.3496 10.2295C58.5264 10.6293 58.6148 11.0675 58.6148 11.5442ZM67.4719 22.4541V16.953C67.6411 17.2375 67.8391 17.5008 68.0659 17.743C68.2927 17.9852 68.5503 18.1986 68.8386 18.3831C69.1269 18.5676 69.4402 18.7118 69.7785 18.8156C70.1168 18.9194 70.4781 18.9713 70.8626 18.9713C71.8005 18.9713 72.6424 18.7483 73.3882 18.3024C74.134 17.8564 74.7202 17.1702 75.1469 16.2438C75.5737 15.3173 75.787 14.1314 75.787 12.6859C75.787 11.2943 75.589 10.1468 75.1931 9.24343C74.7971 8.34004 74.2532 7.67114 73.5612 7.23675C72.8692 6.80235 72.0812 6.58515 71.197 6.58515C70.7895 6.58515 70.4012 6.6332 70.0322 6.72931C69.6632 6.82541 69.321 6.96188 69.0058 7.13872C68.6906 7.31555 68.4042 7.52122 68.1466 7.75572C67.889 7.99021 67.6718 8.2497 67.495 8.53417L67.4835 6.8158H64.1044V22.4541H67.4719ZM70.0553 16.5033C69.4709 16.5033 68.9885 16.3264 68.6079 15.9728C68.2273 15.6191 67.9429 15.1539 67.7545 14.5773C67.5661 14.0007 67.4719 13.3779 67.4719 12.709C67.4719 11.6634 67.6853 10.7888 68.112 10.0853C68.5387 9.38183 69.1865 9.03008 70.0553 9.03008C70.8318 9.03008 71.4565 9.35492 71.9293 10.0046C72.4022 10.6543 72.6386 11.5557 72.6386 12.709C72.6386 14.0237 72.3906 14.9848 71.8947 15.5922C71.3988 16.1996 70.7857 16.5033 70.0553 16.5033ZM81.3919 18.7406V11.129C81.3919 10.7369 81.4976 10.4082 81.7091 10.143C81.9205 9.87773 82.1953 9.67975 82.5336 9.54905C82.8719 9.41835 83.2218 9.35299 83.5831 9.35299C84.1367 9.35299 84.6076 9.49715 84.9959 9.78547C85.3841 10.0738 85.5783 10.487 85.5783 11.0252V18.7406H88.9573V10.5293C88.9573 9.72204 88.7671 9.03777 88.3865 8.47651C88.0059 7.91525 87.5023 7.48662 86.8757 7.19062C86.2491 6.89461 85.5552 6.74661 84.794 6.74661C84.1636 6.74661 83.6292 6.83887 83.191 7.02339C82.7528 7.20791 82.3876 7.43665 82.0954 7.70959C81.8032 7.98253 81.561 8.25739 81.3688 8.53417V1.60303H78.0244V18.7406H81.3919Z" fill="white"/>
<path d="M101.701 18.7407V6.81586H98.4834V18.7407H101.701ZM108.125 18.7407V11.106C108.125 10.7062 108.229 10.3737 108.436 10.1084C108.644 9.84319 108.901 9.64713 109.209 9.52027C109.516 9.39341 109.824 9.32998 110.131 9.32998C110.431 9.32998 110.725 9.39341 111.014 9.52027C111.302 9.64713 111.542 9.83358 111.734 10.0796C111.927 10.3256 112.023 10.6293 112.023 10.9907V18.7407H115.379V11.106C115.379 10.6832 115.486 10.341 115.702 10.0796C115.917 9.8182 116.178 9.62791 116.486 9.50874C116.793 9.38957 117.097 9.32998 117.397 9.32998C117.72 9.32998 118.026 9.39341 118.314 9.52027C118.602 9.64713 118.841 9.85472 119.029 10.143C119.217 10.4314 119.311 10.8139 119.311 11.2905V18.7407H122.679V10.8754C122.679 10.0681 122.562 9.38957 122.327 8.83985C122.093 8.29012 121.783 7.84996 121.399 7.51935C121.014 7.18875 120.593 6.95041 120.136 6.80433C119.679 6.65825 119.227 6.58521 118.781 6.58521C118.012 6.58521 117.314 6.76781 116.688 7.13301C116.061 7.49821 115.556 7.95375 115.171 8.49963C114.941 8.07677 114.639 7.72502 114.266 7.44439C113.893 7.16376 113.495 6.95041 113.072 6.80433C112.649 6.65825 112.234 6.58521 111.827 6.58521C110.896 6.58521 110.126 6.77357 109.514 7.15031C108.903 7.52704 108.417 7.97682 108.056 8.49963V6.81586H104.757V18.7407H108.125Z" fill="white"/>
<path d="M100.04 4.61313C100.996 4.61313 101.77 3.83862 101.77 2.88322C101.77 1.92782 100.996 1.15332 100.04 1.15332C99.0848 1.15332 98.3103 1.92782 98.3103 2.88322C98.3103 3.83862 99.0848 4.61313 100.04 4.61313Z" fill="white"/>
<path d="M93.6972 18.7407C94.6526 18.7407 95.4271 17.9662 95.4271 17.0108C95.4271 16.0554 94.6526 15.2809 93.6972 15.2809C92.7418 15.2809 91.9673 16.0554 91.9673 17.0108C91.9673 17.9662 92.7418 18.7407 93.6972 18.7407Z" fill="white"/>
</svg>
